<?xml version="1.0" standalone="no"?>
<!DOCTYPE svg PUBLIC "-//W3C//DTD SVG 20010904//EN"
 "http://www.w3.org/TR/2001/REC-SVG-20010904/DTD/svg10.dtd">
<svg version="1.0" xmlns="http://www.w3.org/2000/svg"
 width="1079.000000pt" height="962.000000pt" viewBox="0 0 1079.000000 962.000000"
 preserveAspectRatio="xMidYMid meet">

<g transform="translate(0.000000,962.000000) scale(0.100000,-0.100000)"
fill="#000000" stroke="none">
<path d="M4650 9423 c0 -88 -5 -101 -40 -106 -33 -5 -26 -23 7 -20 47 4 57 25
58 115 0 56 -4 82 -12 85 -10 4 -13 -15 -13 -74z"/>
<path d="M4772 9483 c-28 -56 -73 -185 -67 -191 8 -8 35 26 35 45 0 9 15 13
50 13 45 0 51 -3 65 -30 15 -29 43 -44 32 -17 -80 203 -93 223 -115 180z m52
-90 c7 -21 4 -23 -28 -23 -41 0 -42 3 -20 56 l16 38 13 -24 c7 -14 16 -35 19
-47z"/>
<path d="M4880 9492 c0 -24 80 -197 92 -197 7 0 31 43 54 95 48 109 49 110 30
110 -8 0 -28 -35 -47 -80 -18 -44 -35 -77 -38 -74 -3 3 -19 37 -36 76 -16 39
-36 73 -42 76 -7 2 -13 -1 -13 -6z"/>
<path d="M5137 9493 c-11 -19 -77 -184 -77 -193 0 -22 22 -8 31 20 10 28 14
30 60 30 38 0 51 -4 56 -17 9 -27 24 -43 33 -38 12 8 -71 205 -86 205 -7 0
-15 -3 -17 -7z m47 -100 c7 -21 4 -23 -28 -23 -41 0 -42 5 -20 58 l15 37 13
-25 c8 -14 17 -35 20 -47z"/>
<path d="M5292 9484 c-14 -10 -22 -25 -22 -45 0 -26 6 -32 45 -49 86 -37 64
-90 -27 -65 -41 11 -35 -11 7 -25 52 -17 89 3 93 53 3 35 1 39 -35 53 -56 24
-65 33 -52 56 9 16 17 19 52 13 39 -5 41 -5 23 10 -25 19 -56 19 -84 -1z"/>
<path d="M5475 9486 c-75 -32 -73 -146 3 -182 29 -14 41 -14 73 -5 22 7 39 17
39 22 0 7 -10 8 -27 3 -46 -12 -76 -7 -95 16 -55 68 19 169 94 129 27 -14 38
-1 14 17 -24 17 -61 17 -101 0z"/>
<path d="M5632 9398 c2 -70 7 -103 16 -106 8 -2 12 10 12 42 0 39 3 46 20 46
11 0 20 -3 20 -7 0 -16 68 -88 76 -81 4 4 -6 26 -21 48 l-28 41 21 20 c50 46
13 99 -71 99 l-48 0 3 -102z m102 60 c16 -26 -4 -52 -43 -56 -29 -3 -31 -1
-31 31 0 18 3 37 7 41 13 12 56 2 67 -16z"/>
<path d="M5830 9395 c0 -63 4 -105 10 -105 6 0 10 42 10 105 0 63 -4 105 -10
105 -6 0 -10 -42 -10 -105z"/>
<path d="M5912 9400 c2 -72 7 -105 16 -108 8 -2 12 9 12 36 0 38 1 39 40 45
53 7 70 22 70 62 0 43 -20 58 -86 63 l-55 5 3 -103z m94 72 c36 -25 6 -87 -39
-80 -18 2 -23 11 -25 46 -3 40 -2 42 25 42 15 0 33 -4 39 -8z"/>
<path d="M6070 9491 c0 -6 15 -11 33 -13 l32 -3 3 -93 c2 -68 6 -92 15 -89 8
2 13 35 15 95 l3 92 29 0 c17 0 30 5 30 10 0 6 -33 10 -80 10 -44 0 -80 -4
-80 -9z"/>
<path d="M5355 7850 c-8 -26 1 -40 26 -40 10 0 19 -4 19 -10 0 -8 182 -302
294 -475 55 -84 447 -702 531 -835 43 -69 97 -154 120 -190 52 -79 143 -222
395 -620 106 -168 212 -334 235 -370 23 -36 81 -128 130 -205 92 -146 111
-172 119 -164 3 3 -88 151 -201 329 -113 179 -322 507 -463 730 -141 223 -395
623 -564 890 -169 267 -318 501 -331 520 -12 19 -71 112 -130 205 -59 94 -114
178 -122 187 -8 9 -12 21 -9 26 10 17 -5 42 -24 42 -10 0 -21 -9 -25 -20z"/>
<path d="M5173 7668 c-87 -79 -262 -235 -388 -348 -126 -113 -277 -248 -335
-300 -356 -320 -595 -533 -665 -595 -44 -39 -195 -175 -335 -301 -141 -126
-312 -279 -380 -340 -292 -261 -565 -507 -570 -514 -3 -5 -16 -10 -30 -11 -34
-5 -35 -43 -1 -47 13 -2 184 -123 380 -270 582 -434 881 -657 1156 -862 143
-106 364 -271 490 -365 127 -95 240 -178 252 -186 12 -7 24 -23 28 -36 8 -33
58 -33 53 0 -2 14 -11 23 -27 25 -13 2 -30 10 -38 18 -8 7 -64 51 -126 96
-139 104 -802 597 -1700 1267 -229 171 -422 311 -427 311 -21 0 -9 43 18 63
15 12 75 65 133 117 58 52 186 167 284 255 99 88 269 241 380 340 110 99 349
313 530 475 1272 1139 1484 1330 1490 1340 21 34 -33 -8 -172 -132z"/>
<path d="M10232 5954 c-22 -15 -29 -48 -14 -71 4 -6 26 -19 50 -28 28 -12 42
-23 42 -36 0 -27 -33 -41 -65 -29 -33 12 -45 13 -45 1 0 -5 15 -14 34 -21 43
-14 83 1 96 35 14 36 3 55 -46 76 -70 29 -56 76 19 63 30 -5 31 -5 13 10 -25
20 -55 20 -84 0z"/>
<path d="M10415 5957 c-92 -42 -60 -186 41 -191 24 -1 52 -11 68 -24 36 -28
55 -17 25 14 -22 23 -22 24 -3 45 29 32 26 102 -7 134 -30 31 -83 40 -124 22z
m100 -32 c61 -60 -1 -165 -80 -135 -74 28 -49 160 30 160 14 0 37 -11 50 -25z"/>
<path d="M10610 5865 l0 -105 55 0 c65 0 74 17 13 22 l-43 3 -3 93 c-4 128
-22 117 -22 -13z"/>
<path d="M118 5914 c-15 -8 -32 -23 -38 -34 -13 -25 -13 -86 1 -112 24 -44
120 -58 151 -20 11 13 9 14 -17 7 -65 -18 -107 0 -120 52 -15 62 47 118 106
96 17 -7 31 -7 35 -2 6 11 -38 29 -69 29 -12 -1 -34 -7 -49 -16z"/>
<path d="M292 5914 c-22 -15 -29 -48 -14 -71 4 -6 26 -19 50 -28 28 -12 42
-23 42 -36 0 -27 -33 -41 -65 -29 -33 12 -45 13 -45 1 0 -5 15 -14 34 -21 41
-13 83 0 95 32 13 37 1 59 -45 79 -70 29 -56 76 19 63 30 -5 31 -5 13 10 -25
20 -55 20 -84 0z"/>
<path d="M458 5919 c-24 -14 -39 -44 -32 -64 4 -9 26 -25 50 -36 31 -13 44
-24 44 -38 0 -29 -33 -44 -64 -29 -27 12 -43 7 -32 -10 10 -16 66 -22 89 -10
60 31 46 95 -26 112 -59 14 -40 73 20 61 33 -6 46 8 17 19 -22 9 -46 7 -66 -5z"/>
<path d="M7225 4909 c-10 -32 22 -56 44 -34 12 12 13 20 5 33 -17 26 -41 26
-49 1z"/>
<path d="M7250 4843 c0 -5 5 -25 11 -46 6 -21 24 -100 40 -175 48 -221 78
-353 274 -1232 102 -459 200 -895 216 -967 28 -130 60 -271 118 -535 17 -73
44 -195 60 -270 17 -76 45 -200 62 -275 17 -76 41 -190 55 -253 13 -63 27
-122 30 -130 3 -8 18 -75 34 -150 68 -315 90 -412 96 -422 4 -6 8 -32 8 -57 1
-39 4 -46 21 -46 24 0 32 32 12 48 -9 7 -22 44 -30 82 -9 39 -29 133 -47 210
-17 77 -44 201 -61 275 -16 74 -43 196 -60 270 -16 74 -43 194 -59 265 -15 72
-42 193 -60 270 -17 77 -45 201 -61 275 -17 74 -43 195 -60 268 -16 72 -42
192 -58 265 -54 240 -91 405 -120 540 -16 72 -73 326 -126 562 -91 406 -114
507 -184 828 -16 72 -43 193 -60 267 -17 74 -31 136 -31 137 0 2 -4 3 -10 3
-5 0 -10 -3 -10 -7z"/>
<path d="M4841 3459 c1 -8 31 -41 68 -74 117 -106 269 -244 531 -485 140 -130
336 -310 435 -400 100 -91 450 -412 780 -715 329 -302 656 -602 725 -665 69
-63 289 -265 489 -448 199 -184 365 -331 369 -328 8 8 1 14 -368 352 -168 153
-467 427 -665 609 -464 426 -1292 1185 -1509 1385 -94 85 -314 287 -490 449
-177 162 -331 303 -343 314 -17 15 -23 17 -22 6z"/>
<path d="M2012 149 c2 -61 7 -104 13 -104 6 0 11 19 13 43 4 53 22 55 59 5 32
-44 44 -54 55 -47 5 3 -5 23 -22 44 l-31 39 26 25 c48 48 24 87 -59 94 l-57 5
3 -104z m89 71 c40 -22 12 -70 -40 -70 -18 0 -21 6 -21 40 0 34 3 40 21 40 11
0 29 -5 40 -10z"/>
<path d="M2194 237 c-3 -8 -4 -54 -2 -103 l3 -89 63 -3 c36 -2 62 1 62 7 0 5
-21 11 -47 13 -48 3 -48 3 -51 41 l-3 37 46 0 c28 0 44 4 40 10 -3 6 -24 10
-46 10 -38 0 -39 1 -39 35 l0 35 50 0 c28 0 50 5 50 10 0 16 -120 13 -126 -3z"/>
<path d="M2426 241 c-13 -21 -76 -177 -76 -188 0 -24 21 -13 31 17 10 28 15
30 59 30 43 0 50 -3 62 -27 7 -15 18 -25 23 -23 6 3 9 7 8 10 -1 3 -19 47 -40
98 -34 84 -53 107 -67 83z m35 -70 c10 -22 14 -42 11 -45 -10 -11 -62 -6 -62
6 0 17 23 78 30 78 3 0 12 -18 21 -39z"/>
<path d="M2598 234 c-15 -8 -32 -23 -38 -34 -13 -25 -13 -86 1 -112 24 -44
120 -58 151 -20 11 13 9 14 -17 7 -63 -17 -98 -4 -116 44 -24 63 39 127 102
104 17 -7 31 -7 35 -2 6 11 -38 29 -69 29 -12 -1 -34 -7 -49 -16z"/>
<path d="M2740 240 c0 -5 13 -10 30 -10 l29 0 3 -92 c2 -60 7 -93 15 -95 9 -3
13 21 15 89 l3 93 33 3 c64 6 30 22 -48 22 -47 0 -80 -4 -80 -10z"/>
<path d="M7940 125 c0 -105 16 -148 22 -57 l3 47 58 3 57 3 0 -51 c0 -37 4
-50 13 -48 8 3 13 36 15 106 2 86 0 102 -13 102 -11 0 -15 -11 -15 -45 l0 -46
-57 3 -58 3 -3 43 c-2 23 -7 42 -13 42 -5 0 -9 -46 -9 -105z"/>
<path d="M8140 220 c0 -5 13 -10 30 -10 l29 0 3 -92 c2 -60 7 -93 15 -95 9 -3
13 21 15 89 l3 93 33 3 c64 6 30 22 -48 22 -47 0 -80 -4 -80 -10z"/>
<path d="M8330 131 c0 -56 4 -103 10 -106 6 -4 10 22 10 69 0 42 4 76 8 76 4
0 21 -24 38 -52 16 -29 36 -54 44 -56 9 -1 26 19 44 53 15 30 32 52 37 49 5
-3 9 -36 9 -75 0 -39 4 -69 10 -69 6 0 10 42 10 105 0 130 -12 135 -68 33
l-40 -71 -24 39 c-14 21 -33 54 -42 72 -9 17 -23 32 -31 32 -12 0 -15 -18 -15
-99z"/>
<path d="M8602 128 l3 -103 49 -3 c27 -2 54 2 59 7 8 8 -3 11 -36 11 l-47 0 0
95 c0 79 -3 95 -15 95 -13 0 -15 -16 -13 -102z"/>
</g>
</svg>
