<svg width="40" height="55" viewBox="0 0 40 55" fill="none" xmlns="http://www.w3.org/2000/svg">
<path id="Vector" d="M15.3549 48.5998C14.0263 46.2462 12.7265 43.9284 11.398 41.6286C11.3029 41.4653 10.9779 41.345 10.7679 41.354C9.39985 41.4096 8.03003 41.4742 6.66919 41.6125C6.29218 41.652 5.8254 41.8656 5.5974 42.1547C4.65487 43.3521 3.75722 44.5891 2.90625 45.853C2.50589 46.4472 2.13427 46.5154 1.49514 46.2318C-0.490462 45.3503 -0.167308 45.6375 0.577741 43.8369C1.6621 41.2139 2.74646 38.591 3.82364 35.9645C3.97984 35.5821 4.09114 35.1799 4.24913 34.7042C3.67823 34.5336 3.17734 34.3415 2.66029 34.2374C1.86497 34.0776 1.69621 33.706 2.04091 32.9717C3.37123 30.1297 4.55792 27.2124 6.00493 24.4315C9.90792 16.9253 13.9025 9.46942 17.9006 2.01534C18.8144 0.313391 18.8916 0.347502 20.8108 0.681428C25.3565 1.47136 29.2846 3.61495 32.7782 6.50179C35.026 8.35993 36.999 10.5484 39.121 12.5627C39.8463 13.2503 39.8266 13.8212 39.2198 14.6094C35.175 19.8732 31.1517 25.155 27.159 30.4601C24.8933 33.4708 22.7102 36.5425 20.4661 39.5676C20.028 40.1583 20.0298 40.634 20.4248 41.2516C22.2739 44.1456 24.019 47.1097 25.9346 49.9588C26.7263 51.1348 27.8591 52.0791 28.8178 53.1455C29.0422 53.395 29.1912 53.7128 29.3744 53.9983C29.0494 54.0916 28.7263 54.2622 28.3995 54.2658C22.9562 54.343 17.511 54.4004 12.0677 54.4632C11.6494 54.4686 11.2311 54.4866 10.8127 54.4991C10.1521 54.5189 9.84508 54.1957 10.2149 53.623C10.8074 52.7038 11.4124 51.7541 12.1915 51.0037C13.1089 50.1222 14.2202 49.4418 15.3513 48.598L15.3549 48.5998ZM7.61352 22.9162C5.99057 26.4081 4.39096 29.8497 2.76083 33.3577C3.36225 33.5408 3.78953 33.6683 4.21681 33.7975C5.30297 34.1279 5.34067 34.171 4.97084 35.2194C4.40891 36.8172 3.82005 38.4061 3.22222 40.056C5.79847 40.7489 8.31369 41.1816 10.8738 40.4078C11.4842 40.2229 11.7355 40.4419 12.0012 40.9213C13.319 43.3019 14.6367 45.6842 16.003 48.0379C16.4015 48.7255 16.231 49.1007 15.6439 49.5208C14.4788 50.352 13.3226 51.203 12.2203 52.1168C11.7876 52.4758 11.5129 53.0234 11.1718 53.4794H27.913C27.2002 52.711 26.6599 52.1563 26.1482 51.5764C23.3009 48.3323 21.3314 44.5245 19.2614 40.7848C19.1214 40.5317 19.2327 40.0218 19.4033 39.7382C19.9975 38.749 20.6689 37.8046 21.3458 36.7939C19.5092 35.5372 17.809 34.1907 15.9401 33.1458C13.9348 32.0256 13.0838 30.6432 13.9455 28.4009C14.1753 27.803 13.9222 27.3129 13.3818 26.9395C11.5111 25.6505 9.65298 24.3417 7.61352 22.9162ZM32.3563 22.3094C34.4227 19.568 36.4227 16.884 38.4622 14.2306C38.8733 13.6974 38.7315 13.3652 38.3527 12.9272C35.6938 9.85541 32.7046 7.16605 29.2595 4.99913C26.5809 3.31334 23.7425 2.01893 20.5953 1.47136C19.7623 1.32594 19.1465 1.37082 18.6816 2.2595C17.7426 4.06018 16.6672 5.78906 15.6762 7.56461C14.8971 8.95956 14.1628 10.3796 13.4052 11.7979C20.7659 13.5142 27.0836 16.8481 32.3546 22.3076L32.3563 22.3094ZM27.2092 28.9682C25.8071 27.6468 24.5235 26.2645 23.0675 25.0993C19.4607 22.2143 15.4662 20.0401 10.9618 18.8696C10.1539 18.6596 9.61528 18.7368 9.31726 19.6254C9.12876 20.1856 8.81817 20.7134 8.5004 21.2161C8.09107 21.8624 8.15032 22.2897 8.83253 22.7367C10.1323 23.5877 11.3047 24.6505 12.6547 25.3991C14.5308 26.4386 15.3279 27.7546 14.5147 29.8604C14.2095 30.6486 14.5793 31.2015 15.2741 31.6557C16.9257 32.7329 18.5415 33.8675 20.1734 34.977C20.73 35.3559 21.2937 35.7221 21.8664 36.1027C23.6294 33.7491 25.3295 31.478 27.2074 28.97L27.2092 28.9682ZM11.0623 16.27C18.0945 18.042 24.1016 21.3328 28.992 26.654C29.7568 25.6612 30.509 24.6972 31.2469 23.7223C31.4838 23.4099 31.9237 23.0922 31.439 22.6649C30.9722 22.2538 30.7729 21.4046 29.8214 21.7654C28.7334 22.1784 27.6132 22.5069 26.5001 22.848C25.7084 23.0904 25.4911 22.8731 25.7101 22.0706C25.8897 21.4082 26.1123 20.7565 26.317 20.1012C26.825 18.4693 26.8107 18.4926 25.3924 17.5967C24.8646 17.2628 24.4714 17.2538 23.9543 17.6255C23.1052 18.2323 22.2039 18.7709 21.3045 19.3023C21.046 19.4549 20.7156 19.4836 20.4176 19.5698C20.3655 19.2915 20.2578 19.0096 20.274 18.7332C20.3278 17.7493 20.4122 16.7655 20.5056 15.7835C20.5469 15.3454 20.59 14.9343 20.0352 14.7925C19.4266 14.6381 18.8862 13.9451 18.1771 14.6668C17.5074 15.3472 16.7714 15.963 16.0371 16.5752C15.8037 16.7709 15.4895 16.8679 15.2112 17.0097C15.1035 16.7206 14.9348 16.4388 14.9006 16.1426C14.8001 15.2826 14.7265 14.4173 14.6942 13.5519C14.6744 13.0385 14.4033 12.8787 13.9635 12.8518C13.5237 12.8248 13.0335 12.4694 12.7104 13.1067C12.1862 14.1444 11.6368 15.1695 11.0641 16.2664L11.0623 16.27ZM27.6347 28.3111C28.4067 27.7671 28.3905 27.3003 27.7873 26.6271C25.2739 23.8228 22.1967 21.796 18.906 20.0599C16.5487 18.8176 14.0856 17.8283 11.4662 17.2754C10.9671 17.1695 10.4196 17.024 10.3567 17.8301C17.1591 19.5823 22.9292 23.0275 27.6347 28.3093V28.3111ZM0.943982 45.072C1.38922 45.2533 1.71237 45.3844 2.0822 45.5352C3.06064 44.1798 4.01395 42.862 5.04624 41.4347C4.23297 41.2534 3.54896 41.1008 2.81109 40.9356C2.19351 42.3037 1.59568 43.6286 0.943982 45.072ZM26.6473 21.9216C27.7604 21.559 28.667 21.2628 29.7586 20.9073C28.9255 20.2412 28.2559 19.7062 27.4965 19.0994C27.1985 20.0868 26.9543 20.9019 26.6473 21.9216ZM21.3799 15.428C21.2919 16.4693 21.2183 17.3472 21.1285 18.428C22.1142 17.805 22.8915 17.3149 23.8035 16.7386C22.9256 16.2646 22.2111 15.8768 21.3799 15.428ZM17.8144 13.8841C16.9652 13.6237 16.301 13.4209 15.5075 13.1785C15.5667 14.0564 15.6152 14.7997 15.6798 15.7691C16.4428 15.0959 17.046 14.5627 17.8144 13.8841Z" fill="black"/>
</svg>
